<?xml version="1.0" encoding="UTF-8" standalone="no"?>
<!-- Created with Inkscape (http://www.inkscape.org/) -->

<svg
   width="219px"
   height="34px"
   viewBox="0 0 210 297"
   version="1.1"
   id="svg197"
   sodipodi:docname="BoxStarterScript.svg"
   inkscape:version="1.2.2 (732a01da63, 2022-12-09)"
   xmlns:inkscape="http://www.inkscape.org/namespaces/inkscape"
   xmlns:sodipodi="http://sodipodi.sourceforge.net/DTD/sodipodi-0.dtd"
   xmlns="http://www.w3.org/2000/svg"
   xmlns:svg="http://www.w3.org/2000/svg">
  <sodipodi:namedview
     id="id_boxstarter"
     pagecolor="#0078D4"
     bordercolor="#000000"
     borderopacity="0.25"
     inkscape:showpageshadow="2"
     inkscape:pageopacity="0.0"
     inkscape:pagecheckerboard="0"
     inkscape:deskcolor="#d1d1d1"
     inkscape:document-units="px"
     showgrid="false"
     inkscape:zoom="5.0495043"
     inkscape:cx="109.61472"
     inkscape:cy="17.031375"
     inkscape:window-width="3440"
     inkscape:window-height="1387"
     inkscape:window-x="1912"
     inkscape:window-y="-8"
     inkscape:window-maximized="1"
     inkscape:current-layer="layer1" />
  <defs
     id="defs194">
    <pattern
       id="EMFhbasepattern"
       patternUnits="userSpaceOnUse"
       width="6"
       height="6"
       x="0"
       y="0" />
    <clipPath
       clipPathUnits="userSpaceOnUse"
       id="clipEmfPath1">
      <path
         d="M 0,0 L 21.879437,0 L 21.879437,16.628372 L 0,16.628372 z"
         id="path4825" />
    </clipPath>
    <pattern
       id="EMFhbasepattern-4"
       patternUnits="userSpaceOnUse"
       width="6"
       height="6"
       x="0"
       y="0" />
    <pattern
       id="EMFhbasepattern-3"
       patternUnits="userSpaceOnUse"
       width="6"
       height="6"
       x="0"
       y="0" />
  </defs>
  <g
     inkscape:label="Layer 1"
     inkscape:groupmode="layer"
     id="layer1">
    <path
       style="fill:#0078d4;fill-opacity:1;fill-rule:evenodd;stroke:none;stroke-width:8.73529"
       d="M -769.15195,269.36307 H 913.68889 c 25.3238,0 45.8696,-20.54576 45.8696,-45.8696 V 70.594807 c 0,-25.32384 -20.5458,-45.8696 -45.8696,-45.8696 H -769.15195 c -25.32384,0 -45.8696,20.54576 -45.8696,45.8696 V 223.49347 c 0,25.32384 20.54576,45.8696 45.8696,45.8696 z"
       id="path4962" />
    <path
       style="fill:none;stroke:#0078d4;stroke-width:7.64493px;stroke-linecap:round;stroke-linejoin:round;stroke-miterlimit:4;stroke-dasharray:none;stroke-opacity:1"
       d="M -769.15195,269.36307 H 913.68889 c 25.3238,0 45.8696,-20.54576 45.8696,-45.8696 V 70.594807 c 0,-25.32384 -20.5458,-45.8696 -45.8696,-45.8696 H -769.15195 c -25.32384,0 -45.8696,20.54576 -45.8696,45.8696 V 223.49347 c 0,25.32384 20.54576,45.8696 45.8696,45.8696 z"
       id="path4964" />
    <text
       xml:space="preserve"
       style="font-style:normal;font-variant:normal;font-weight:400;font-size:145.224px;line-height:125%;font-family:'Segoe UI Semibold';text-align:start;letter-spacing:0px;word-spacing:0px;text-anchor:start;fill:#000000;fill-opacity:1;stroke:none;stroke-width:8.73529"
       x="-512.09045"
       y="193.36996"
       id="text4970"><tspan
         sodipodi:role="line"
         x="-512.09045"
         y="193.36996"
         id="tspan4968"
         style="stroke-width:8.73529"><tspan
           dx="0"
           dy="0"
           style="font-style:normal;font-variant:normal;font-weight:400;font-size:145.224px;font-family:'Segoe UI Semibold';fill:#ffffff;stroke-width:8.73529"
           id="tspan4966">PowerShell</tspan></tspan></text>
    <text
       xml:space="preserve"
       style="font-style:normal;font-variant:normal;font-weight:400;font-size:145.224px;line-height:125%;font-family:'Segoe UI';text-align:start;letter-spacing:0px;word-spacing:0px;text-anchor:start;fill:#000000;fill-opacity:1;stroke:none;stroke-width:8.73529"
       x="270.24091"
       y="193.36996"
       id="text4976"><tspan
         sodipodi:role="line"
         x="270.24091"
         y="193.36996"
         id="tspan4974"
         style="stroke-width:8.73529"><tspan
           dx="0"
           dy="0"
           style="font-style:normal;font-variant:normal;font-weight:400;font-size:145.224px;font-family:'Segoe UI';fill:#ffffff;stroke-width:8.73529"
           id="tspan4972">BoxStarter</tspan></tspan></text>
    <path
       style="fill:#ffffff;fill-opacity:1;fill-rule:evenodd;stroke:none;stroke-width:8.73529"
       d="m -699.39194,88.273717 -28.19069,118.018653 h 135.21975 l 28.19069,-118.496463 z"
       id="path4978" />
    <path
       style="fill:none;stroke:#ffffff;stroke-width:7.64493px;stroke-linecap:round;stroke-linejoin:round;stroke-miterlimit:4;stroke-dasharray:none;stroke-opacity:1"
       d="m -699.39194,88.273717 -28.19069,118.018653 h 135.21975 l 28.19069,-118.496463 z"
       id="path4980" />
    <path
       style="fill:#0070c0;fill-opacity:1;fill-rule:evenodd;stroke:none;stroke-width:8.73529"
       d="m -655.91138,187.18004 c 0,2.38904 1.43342,3.82247 2.38904,3.82247 h 36.79123 c 1.43343,0 2.86686,-1.43343 2.86686,-3.82247 v -5.7337 c 0,-1.91124 -1.43343,-3.82247 -2.86686,-3.82247 h -36.79123 c -0.95562,0 -2.38904,1.91123 -2.38904,3.82247 z"
       id="path4982" />
    <path
       style="fill:#0070c0;fill-opacity:1;fill-rule:evenodd;stroke:none;stroke-width:8.73529"
       d="m -693.65824,190.5247 c 0.47781,0.95561 2.86685,0.95561 5.25589,-0.47781 l 53.99234,-39.18028 c 2.38904,-1.43343 3.34466,-3.82247 2.38904,-4.77808 l -2.38904,-3.34466 c -0.95562,-1.43343 -3.34466,-1.43343 -5.7337,0 l -53.99234,39.18027 c -1.91123,1.43343 -2.86684,3.82247 -1.91123,5.2559 z"
       id="path4984" />
    <path
       style="fill:none;stroke:#0070c0;stroke-width:7.64493px;stroke-linecap:butt;stroke-linejoin:miter;stroke-miterlimit:2;stroke-dasharray:none;stroke-opacity:1"
       d="m -693.65824,190.5247 c 0.47781,0.95561 2.86685,0.95561 5.25589,-0.47781 l 53.99234,-39.18028 c 2.38904,-1.43343 3.34466,-3.82247 2.38904,-4.77808 l -2.38904,-3.34466 c -0.95562,-1.43343 -3.34466,-1.43343 -5.7337,0 l -53.99234,39.18027 c -1.91123,1.43343 -2.86684,3.82247 -1.91123,5.2559 z"
       id="path4986" />
    <path
       style="fill:#0070c0;fill-opacity:1;fill-rule:evenodd;stroke:none;stroke-width:8.73529"
       d="m -677.41276,105.95262 c -0.95561,1.43343 -0.47781,3.34466 0.95562,4.77809 l 36.79124,39.65809 c 1.43343,1.43343 3.34466,1.91124 4.77808,0.95561 l 2.86685,-2.86684 c 0.95562,-0.95562 0.95562,-2.86686 -0.4778,-4.77809 l -37.26905,-39.65809 c -1.43343,-1.43342 -3.34467,-1.91123 -4.30028,-0.95561 z"
       id="path4988" />
    <path
       style="fill:none;stroke:#0070c0;stroke-width:7.64493px;stroke-linecap:butt;stroke-linejoin:miter;stroke-miterlimit:2;stroke-dasharray:none;stroke-opacity:1"
       d="m -677.41276,105.95262 c -0.95561,1.43343 -0.47781,3.34466 0.95562,4.77809 l 36.79124,39.65809 c 1.43343,1.43343 3.34466,1.91124 4.77808,0.95561 l 2.86685,-2.86684 c 0.95562,-0.95562 0.95562,-2.86686 -0.4778,-4.77809 l -37.26905,-39.65809 c -1.43343,-1.43342 -3.34467,-1.91123 -4.30028,-0.95561 z"
       id="path4990" />
  </g>
</svg>
